Dune extended edition bluray with bonus DVD. 
And also an anaglyph 3D version is on the disk.
Soundtracks: [b]English[/b] DTS 5/1 and PCM2/0, [b]Deutsch[/b] PCM 2/0
No subtitles are included.
 
http://www.imdb.com/title/tt0087182/


Video
Format                                   : AVC
Format/Info                              : Advanced Video Codec
Format profile                           : High@L4.1
Format settings, CABAC                   : Yes
Format settings, ReFrames                : 1 frame
Format settings, GOP                     : M=1, N=33
Duration                                 : 2h 16mn
Bit rate mode                            : Variable
Bit rate                                 : 11.6 Mbps
Maximum bit rate                         : 15.0 Mbps
Width                                    : 1 920 pixels
Height                                   : 1 080 pixels
Display aspect ratio                     : 16:9
Frame rate                               : 24.000 fps
Stream size                              : 11.0 GiB (68%)

Audio #1
Format                                   : PCM
Bit rate mode                            : Constant
Bit rate                                 : 1 536 Kbps
Channel(s)                               : 2 channels
Channel positions                        : Front: L R
Sampling rate                            : 48.0 KHz
Bit depth                                : 16 bits
Stream size                              : 1.46 GiB (9%)

Audio #2
Format                                   : PCM
Bit rate mode                            : Constant
Bit rate                                 : 1 536 Kbps
Channel(s)                               : 2 channels
Channel positions                        : Front: L R
Sampling rate                            : 48.0 KHz
Bit depth                                : 16 bits
Stream size                              : 1.46 GiB (9%)

Audio #3
Format                                   : DTS
Format/Info                              : Digital Theater Systems
Format profile                           : MA / Core
Bit rate mode                            : Variable
Bit rate                                 : 1 576 Kbps / 1 510 Kbps
Channel(s)                               : 6 channels
Channel positions                        : Front: L C R, Side: L R, LFE
Sampling rate                            : 48.0 KHz
Bit depth                                : 16 bits
Compression mode                         : Lossless / Lossy

Thanks to arbraxas & blu-torrents.
